# xmcd
#
# Track frame offsets:
#	150
#	21085
#	42772
#	62682
#	80875
#	102032
#	131237
#	151880
#
# Disc length: 2311 seconds
#
# Revision: 0
# Processed by: cddbd v1.5.2PL0 Copyright (c) Steve Scherf et al.
# Submitted via: audiograbber 1.83.01
#
DISCID=61090508
DTITLE=Jasper, Chris - Superbad
DYEAR=1987
DGENRE=Soul
TTITLE0=Superbad
TTITLE1=Givin' my all
TTITLE2=One time love 
TTITLE3=Earthquake
TTITLE4=Like I do
TTITLE5=Dance for the Dollar
TTITLE6=The son of man
TTITLE7=My soul train
EXTD=
EXTT0=
EXTT1=
EXTT2=
EXTT3=
EXTT4=
EXTT5=
EXTT6=
EXTT7=
PLAYORDER=
